<?xml version="1.0" encoding="UTF-8" standalone="no"?>
<!DOCTYPE svg PUBLIC "-//W3C//DTD SVG 1.1//EN" "http://www.w3.org/Graphics/SVG/1.1/DTD/svg11.dtd">
<svg width="100%" height="100%" viewBox="0 0 128 128" version="1.1" xmlns="http://www.w3.org/2000/svg" xmlns:xlink="http://www.w3.org/1999/xlink" xml:space="preserve" xmlns:serif="http://www.serif.com/" style="fill-rule:evenodd;clip-rule:evenodd;stroke-linejoin:round;stroke-miterlimit:2;">
    <g transform="matrix(2.03803,0,0,2.03803,64.0028,29.0786)">
        <path d="M0,34.698C-7.15,34.698 -12.948,28.905 -12.948,21.757C-12.948,14.604 -7.15,8.813 0,8.813C7.151,8.813 12.939,14.604 12.939,21.757C12.939,28.905 7.151,34.698 0,34.698M18.21,35.311C21.029,31.528 22.698,26.838 22.698,21.757C22.698,10.923 15.112,1.871 4.964,-0.393C3.238,-8.485 0.814,-12.816 0.039,-12.816C-0.727,-12.822 -3.187,-8.492 -4.971,-0.392C-15.12,1.874 -22.706,10.925 -22.706,21.757C-22.706,26.839 -21.036,31.53 -18.215,35.313C-22.427,41.923 -23.688,46.441 -23.164,46.967C-22.621,47.52 -17.805,46.203 -10.788,41.738C-7.579,43.473 -3.904,44.46 0,44.46C3.904,44.46 7.576,43.473 10.784,41.739C17.803,46.203 22.618,47.52 23.16,46.967C23.688,46.441 22.423,41.923 18.21,35.311" style="fill:rgb(61,239,233);fill-rule:nonzero;"/>
    </g>
    <g transform="matrix(2.03803,0,0,2.03803,64.0106,29.0786)">
        <path d="M-0.13,-12.763C-0.099,-12.798 -0.072,-12.816 -0.049,-12.816C-0.035,-12.816 -0.021,-12.815 -0.005,-12.812C0.01,-12.815 0.025,-12.816 0.039,-12.816C0.061,-12.816 0.088,-12.798 0.119,-12.763C1.031,-12.247 3.292,-7.969 4.961,-0.392C15.11,1.874 22.696,10.925 22.696,21.757C22.696,26.839 21.026,31.53 18.205,35.313C22.417,41.923 23.678,46.441 23.154,46.967C22.611,47.52 17.795,46.203 10.778,41.738C10.778,41.738 2.837,36.846 7.525,32.158C9.522,30.161 12.938,27.758 12.938,21.757C12.938,14.607 7.145,8.819 -0,8.813L-0.01,8.813C-7.156,8.819 -12.948,14.607 -12.948,21.757C-12.948,27.758 -9.533,30.161 -7.536,32.158C-2.848,36.846 -10.788,41.738 -10.788,41.738C-17.805,46.203 -22.621,47.52 -23.164,46.967C-23.688,46.441 -22.427,41.923 -18.215,35.313C-21.036,31.53 -22.706,26.839 -22.706,21.757C-22.706,10.925 -15.12,1.874 -4.971,-0.392C-3.302,-7.969 -1.042,-12.247 -0.13,-12.763Z" style="fill:rgb(57,146,255);"/>
    </g>
</svg>
